<?xml version="1.0" encoding="utf-8"?>
<!-- Generator: Adobe Illustrator 27.5.0, SVG Export Plug-In . SVG Version: 6.00 Build 0)  -->
<svg version="1.1" xmlns="http://www.w3.org/2000/svg" xmlns:xlink="http://www.w3.org/1999/xlink" x="0px" y="0px"
	viewBox="450 450 2900 2900" style="enable-background:new 0 0 3710 3710;" xml:space="preserve">
<g id="Background">
	<g>
		<g>
			<rect width="3710" height="3710"/>
		</g>
	</g>
</g>
<g id="Illustration">
	<g>
		<path d="M1893.878,469.153c-308.018,122.473-337.521,435.546-614.856,462.413
			c-241.653,23.411-333.504-203.213-503.065-162.607c-258.289,61.856-420.681,677.646-316.946,1183.98
			c107.113,522.825,557.161,1217.853,1302.749,1265.284c837.082,53.252,1470.462-746.439,1509.134-1448.217
			c4.182-75.894,28.881-711.791-457.272-1087.433C2789.33,663.805,2310.271,303.588,1893.878,469.153z"/>
		<g>
			<g>
				<defs>
					<path id="SVGID_1_" d="M1942.745,1754.897l155.589,179.07c0,0,121.148-46.105,147.846-146.315
						c54.473-204.459,229.743-142.48,307.037-127.503c116.565,22.587,229.137-8.345,173.559-142.181
						s195.872-169.294,378.867-105.684c179.073,62.246,393.054-220.158,17.843-390.47
						c-224.075-101.71-380.161,80.334-480.838,153.525c-100.677,73.191-229.383-59.295-302.333,87.705
						c-62.313,125.565-66.348,264.773-184.774,264.107C2037.115,1526.485,1956.52,1585.799,1942.745,1754.897z"/>
				</defs>
				<clipPath id="SVGID_00000147901401981555155540000008555027196571866804_">
					<use xlink:href="#SVGID_1_"  style="overflow:visible;"/>
				</clipPath>
				
					<linearGradient id="SVGID_00000102517667690542611350000008442264783313923973_" gradientUnits="userSpaceOnUse" x1="2063.7913" y1="1849.9299" x2="3466.8804" y2="828.1557">
					<stop  offset="0.0036" style="stop-color:#E38DDD"/>
					<stop  offset="1" style="stop-color:#9571F6"/>
				</linearGradient>
				
					<path style="clip-path:url(#SVGID_00000147901401981555155540000008555027196571866804_);fill:url(#SVGID_00000102517667690542611350000008442264783313923973_);" d="
					M1942.745,1754.897l155.589,179.07c0,0,121.148-46.105,147.846-146.315c54.473-204.459,229.743-142.48,307.037-127.503
					c116.565,22.587,214.961-8.322,187.509-133.427c-31.06-141.55,181.922-178.047,364.917-114.438
					c179.073,62.246,393.054-220.158,17.843-390.47c-224.075-101.71-380.161,80.334-480.838,153.525
					c-100.677,73.191-229.383-59.295-302.333,87.705c-62.313,125.565-66.348,264.773-184.774,264.107
					C2037.115,1526.485,1956.52,1585.799,1942.745,1754.897z"/>
				<g style="opacity:0.5;clip-path:url(#SVGID_00000147901401981555155540000008555027196571866804_);">
					<path style="fill:#BEB8F2;" d="M1993.464,1846.84l3.913,3.126c1.936-2.423,196.667-244.335,462.023-425.944
						c244.463-167.312,600.637-316.185,909.173-75.286l3.083-3.947c-137.345-107.238-295.376-147.488-469.705-119.634
						c-139.258,22.25-289.134,87.787-445.463,194.791C2190.538,1601.985,1995.406,1844.412,1993.464,1846.84z"/>
					<path style="fill:#BEB8F2;" d="M2829.606,1239.94l3.729,3.345c111.352-124.031,330.042-230.566,332.238-231.628l-2.178-4.51
						C3161.189,1008.215,2941.611,1115.183,2829.606,1239.94z"/>
					<path style="fill:#BEB8F2;" d="M2946.269,1224.565c189.858,58.368,255.121,210.32,255.757,211.848l4.622-1.925
						c-0.644-1.552-66.722-155.625-258.906-214.71L2946.269,1224.565z"/>
					<path style="fill:#BEB8F2;" d="M2292.389,1552.203c214.958-112.593,469.293,91.836,471.605,94.035l3.678-3.391
						c-2.064-2.373-260.74-208.673-477.607-95.079L2292.389,1552.203z"/>
					<path style="fill:#BEB8F2;" d="M2366.898,1485.415l3.988,3.033c93.757-123.234,64.643-315.786,64.337-317.718l-4.946,0.781
						C2430.579,1173.423,2459.35,1363.904,2366.898,1485.415z"/>
					<path style="fill:#BEB8F2;" d="M2028.857,1812.573c74.108-54.824,215.094-3.507,216.51-2.984l1.74-4.694
						c-5.88-2.182-144.935-52.79-221.229,3.653L2028.857,1812.573z"/>
					<path style="fill:#BEB8F2;" d="M2074.201,1754.667l3.875,3.173c46.189-56.383,35.377-190.858,31.823-235.047
						c-0.501-6.245-0.935-11.635-0.823-12.611l-4.966-0.641c-0.178,1.374,0.1,4.958,0.798,13.654
						C2108.421,1566.885,2119.111,1699.845,2074.201,1754.667z"/>
				</g>
			</g>
			<g>
				
					<linearGradient id="SVGID_00000168800781164197978600000002573209592624527283_" gradientUnits="userSpaceOnUse" x1="-3927.4077" y1="1675.6494" x2="-3243.6379" y2="3472.313" gradientTransform="matrix(-0.9994 -0.0344 -0.0344 0.9994 -1427.0079 -1330.2521)">
					<stop  offset="0" style="stop-color:#AA80F9"/>
					<stop  offset="0.9964" style="stop-color:#6165D7"/>
				</linearGradient>
				<path style="fill:url(#SVGID_00000168800781164197978600000002573209592624527283_);" d="M2125.159,1832.99
					c35.45,64.693,7.439,130.52-20.293,174.98c-7.086,0.165-11.121,2.067-18.209,3.813c-63.976,15.76-94.627,8.852-160.137,14.431
					c-14.101,1.201-56.561-7.862-73.672-12.679l-31.757-9.49c0,0-62.74-157.771,22.566-203.155
					c85.305-45.384,44.727-202.786,33.507-288.821c-6.89-52.832,6.883-79.201,7.468-99.02
					c6.19-209.799-58.769-269.984-14.847-336.971c48.486-73.948,141.527-21.769,198.522-99.425
					c64.358-87.69-11.07-213.098,68.378-282.472c13.621-11.894,27.939-23.744,50.878-31.203
					c56.622-18.41,103.995,13.508,143.368-34.666c79.14-96.833,213.024-133.424,298.199-36.7
					c84.063,95.462-4.019,289.982-237.675,449.188c-153.259,132.166-153.993,170.94-137.197,265.036
					c11.762,65.909,87.317,236.812-5.99,307.227C2154.962,1683.48,2084.631,1759.034,2125.159,1832.99z"/>
				<g>
					<defs>
						<path id="SVGID_00000041279619585623384350000007887380258809537708_" d="M2065.333,2062.137l-238.71-52.415
							c0,0-68.273-163.448,17.032-208.832c85.306-45.384,44.728-202.786,33.507-288.821
							c-30.443-233.437,242.175-216.964,228.788-519.29c-3.561-80.409-39.262-233.272,30.732-298.598
							c79.743-74.425,143.612-3.916,194.246-65.87c79.14-96.832,213.025-133.423,298.199-36.7
							c84.063,95.462-4.019,289.982-237.674,449.188c-153.26,132.167-153.993,170.94-137.198,265.036
							c11.764,65.909,87.317,236.813-5.99,307.228s-163.636,145.97-123.11,219.926
							C2186.824,1945.523,2065.333,2062.137,2065.333,2062.137z"/>
					</defs>
					<clipPath id="SVGID_00000178185698761355206120000007072813937222183352_">
						<use xlink:href="#SVGID_00000041279619585623384350000007887380258809537708_"  style="overflow:visible;"/>
					</clipPath>
					<g style="opacity:0.5;clip-path:url(#SVGID_00000178185698761355206120000007072813937222183352_);">
						<path style="fill:#FCFDFE;" d="M1960.846,2028.071l-4.821-0.472c2.359-26.646,5.094-53.484,8.127-79.768
							c22.472-194.609,63.731-379.803,122.637-550.443c49.914-144.587,113.163-280.771,187.992-404.768
							c60.177-99.718,128.137-192.132,201.993-274.675c51.92-58.025,106.193-110.612,161.316-156.293
							c9.605-7.963,19.919-15.596,29.895-22.978c13.291-9.835,27.034-20.005,39.201-31.035l3.418,3.255
							c-12.334,11.181-26.17,21.421-39.55,31.323c-9.926,7.345-20.189,14.941-29.697,22.822
							c-54.95,45.538-109.062,97.967-160.834,155.829c-73.673,82.337-141.469,174.533-201.509,274.021
							c-74.675,123.742-137.798,259.655-187.615,403.963c-58.807,170.351-99.999,355.251-122.434,549.559
							C1965.933,1974.66,1963.202,2001.46,1960.846,2028.071z"/>
						<path style="fill:#FCFDFE;" d="M2194.784,1149.371l-4.464-1.831c80.228-176.255-11.784-497.662-12.724-500.887l4.669-1.081
							C2183.208,648.813,2275.654,971.706,2194.784,1149.371z"/>
						<path style="fill:#FCFDFE;" d="M2017.334,1661.716l-4.65-1.342c39.29-126.038,287.035-227.15,289.532-228.158l2.012,4.134
							C2301.751,1437.35,2056.009,1537.648,2017.334,1661.716z"/>
						<path style="fill:#FCFDFE;" d="M2001.74,1735.165l-4.813-0.565c9.477-85.531-26.901-207.94-102.435-344.673
							c-3.798-6.876-3.798-6.876-3.717-7.724l4.82,0.509l-2.41-0.254l2.307-0.599c0.197,0.483,1.63,3.079,3.295,6.088
							C1974.75,1525.46,2011.314,1648.77,2001.74,1735.165z"/>
						<path style="fill:#FCFDFE;" d="M1965.894,1979.517l-4.469-1.816c39.087-86.865,184.482-123.432,185.944-123.791l1.338,4.349
							C2147.264,1858.614,2004.087,1894.642,1965.894,1979.517z"/>
						<path style="fill:#FCFDFE;" d="M1953.553,2028.549c-21.599-74.336-66.734-145.833-137.982-218.576l3.546-2.986
							c71.794,73.303,117.295,145.425,139.105,220.485L1953.553,2028.549z"/>
						<path style="fill:#FCFDFE;" d="M2437.9,770.163l-4.351-2.059c50.542-95.557,79.526-207.352,89.05-244.088
							c2.306-8.893,3.128-12.02,3.619-13.059l4.436,1.89c-0.364,0.798-1.681,5.881-3.349,12.318
							C2517.75,562.02,2488.673,674.17,2437.9,770.163z"/>
						<path style="fill:#FCFDFE;" d="M2330.707,913.7l-3.536-3.145c74.02-72.049,290.809-73.597,300.002-73.628l0.128,4.497
							C2625.071,841.432,2403.344,842.997,2330.707,913.7z"/>
					</g>
				</g>
			</g>
			<g>
				
					<linearGradient id="SVGID_00000010286391881186961200000002273611375085173164_" gradientUnits="userSpaceOnUse" x1="1955.7222" y1="1477.7533" x2="2691.5864" y2="2689.1753" gradientTransform="matrix(-0.9995 0.0331 0.0331 0.9995 4625.7695 -751.2418)">
					<stop  offset="0" style="stop-color:#FF9085"/>
					<stop  offset="1" style="stop-color:#FB6FBB"/>
				</linearGradient>
				<path style="fill:url(#SVGID_00000010286391881186961200000002273611375085173164_);" d="M2258.225,2024.349
					c-14.508-1.337-68.486,130.15-113.778,36.156c-11.315-23.483-26.089-105.548-133.242-105.68
					c-20.8-0.026-41.601-0.053-62.401-0.079c-19.475-46.056-29.297-93.072,33.128-113.107
					c96.943-31.112,91.435-194.501,61.699-251.358c-36.802-70.372-118.952-235.861,30.095-286.194
					c124.081-41.903,213.465-44.911,214.881-198.347c1.416-153.438,85.277-251.986,232.725-247.874
					c155.166,4.327,272.625-194.528,402.512-133.764c226.319,105.881,42.551,450.154-221.306,557.047
					c-263.855,106.894-105.373,193.088-92.072,318.163c0.577,11.681,0.57,29.834-3.505,51.259
					c-25.091,131.905-160.959,159.136-255.015,269.656C2223.673,2070.955,2282.668,2026.602,2258.225,2024.349z"/>
				<g>
					<defs>
						<path id="SVGID_00000137094132006509289240000008274583361882803842_" d="M2299.265,1982.156l-337.206,8.953
							c-21.447-44.571-49.856-127.09,19.873-149.469c96.944-31.114,91.435-194.501,61.7-251.359
							c-36.803-70.372-118.952-235.861,30.095-286.195c124.08-41.903,213.464-44.91,214.88-198.347
							c1.417-153.437,85.279-251.985,232.726-247.873c155.166,4.327,272.624-194.529,402.511-133.764
							c226.32,105.88,42.551,450.152-221.305,557.046c-263.856,106.894-105.374,193.088-92.073,318.163
							c18.159,170.755-228.442,142.52-289.866,211.932C2272.447,1865.659,2285.367,1938.049,2299.265,1982.156z"/>
					</defs>
					<clipPath id="SVGID_00000024713263585220073760000012294424689330017947_">
						<use xlink:href="#SVGID_00000137094132006509289240000008274583361882803842_"  style="overflow:visible;"/>
					</clipPath>
					<g style="opacity:0.5;clip-path:url(#SVGID_00000024713263585220073760000012294424689330017947_);">
						<path style="fill:#FCFDFE;" d="M2138.485,1936.266l-7.224-1.142c83.385-497.881,422.641-952.77,885.376-1187.148l3.503,6.093
							C2559.356,987.46,2221.525,1440.453,2138.485,1936.266z"/>
						<path style="fill:#FCFDFE;" d="M2208.609,1668.722l-7.306,0.226c-8.855-198.298-195.458-347.349-197.343-348.832l4.649-5.288
							C2010.519,1316.328,2199.613,1467.298,2208.609,1668.722z"/>
						<path style="fill:#FCFDFE;" d="M2156.473,1845.096l-6.576-3.079c93.146-180.035,478.697-216.952,482.581-217.303l0.768,6.874
							C2629.404,1631.935,2247.848,1668.484,2156.473,1845.096z"/>
						<path style="fill:#FCFDFE;" d="M2448.897,1231.207l-6.828-2.538c60.651-148.374-50.49-370.409-51.619-372.634l6.585-2.939
							C2398.181,855.348,2510.67,1080.092,2448.897,1231.207z"/>
						<path style="fill:#FCFDFE;" d="M2671.538,991.188l-4.091-5.763c159.635-100.189,415.814-55.417,418.386-54.949l-1.306,6.783
							C3081.988,936.794,2828.685,892.558,2671.538,991.188z"/>
					</g>
				</g>
			</g>
		</g>
		<g>
			<g>
				
					<linearGradient id="SVGID_00000021113618119166326840000016176082787649318282_" gradientUnits="userSpaceOnUse" x1="2203.9111" y1="2806.6299" x2="1846.6613" y2="3280.4941">
					<stop  offset="0" style="stop-color:#444B8C"/>
					<stop  offset="0.9964" style="stop-color:#26264F"/>
				</linearGradient>
				<path style="fill:url(#SVGID_00000021113618119166326840000016176082787649318282_);" d="M2325.863,3108.844
					c-41.312-13.703-72.188-48.763-80.895-91.856L2184.84,2719.4l-514.346,18.265l-63.301,310.021
					c-8.866,43.418,26.623,86.978,67.495,102.969l215.191,84.197c40.024,15.66,83.047,21.897,125.808,18.239l454.776-38.906
					c13.295-1.137,23.958-11.587,25.505-24.994c1.547-13.407,10.862-28.461-1.815-32.666L2325.863,3108.844z"/>
				
					<linearGradient id="SVGID_00000142135919351766769970000009391738194312368285_" gradientUnits="userSpaceOnUse" x1="2174.3257" y1="3420.1216" x2="1306.8444" y2="1046.4595">
					<stop  offset="0" style="stop-color:#444B8C"/>
					<stop  offset="0.9964" style="stop-color:#26264F"/>
				</linearGradient>
				<path style="fill:url(#SVGID_00000142135919351766769970000009391738194312368285_);" d="M2330.952,3090.745
					c-41.27-13.53-72.115-48.15-80.813-90.702l-60.067-293.847l-501.808,18.054l-63.238,306.123
					c-8.856,42.872,14.576,85.864,55.407,101.655l214.975,83.138c39.984,15.463,82.963,21.622,125.681,18.01l454.318-38.416
					c13.281-1.123,23.934-11.442,25.48-24.68c1.546-13.238-6.444-25.734-19.109-29.886L2330.952,3090.745z"/>
			</g>
			<g>
				<g>
					<path style="fill:#97A6B7;" d="M619.498,2917.192c-55.777,3.325-101.408-32.86-101.408-80.679V1112.995
						c0-47.819,45.631-84.747,101.408-82.33l2579.476,111.766c40.95,1.774,74.109,36.3,74.109,76.969V2685.24
						c0,40.67-33.159,75.735-74.109,78.176L619.498,2917.192z"/>
					
						<linearGradient id="SVGID_00000154425677915797577930000011966514636652236458_" gradientUnits="userSpaceOnUse" x1="440.0918" y1="2869.0798" x2="3310.9036" y2="986.671">
						<stop  offset="0" style="stop-color:#444B8C"/>
						<stop  offset="0.9964" style="stop-color:#26264F"/>
					</linearGradient>
					<path style="fill:url(#SVGID_00000154425677915797577930000011966514636652236458_);" d="M642.68,2917.192
						c-55.777,3.325-101.409-32.86-101.409-80.679V1112.995c0-47.819,45.631-84.747,101.409-82.33l2579.476,111.766
						c40.95,1.774,74.109,36.3,74.109,76.969V2685.24c0,40.67-33.159,75.735-74.109,78.176L642.68,2917.192z"/>
					
						<linearGradient id="SVGID_00000049200009351547696290000008893185181600903074_" gradientUnits="userSpaceOnUse" x1="2845.7825" y1="1132.1727" x2="180.4165" y2="3358.8604">
						<stop  offset="0" style="stop-color:#444B8C"/>
						<stop  offset="0.9964" style="stop-color:#26264F"/>
					</linearGradient>
					<path style="fill:url(#SVGID_00000049200009351547696290000008893185181600903074_);" d="M3222.157,1176.929L642.681,1070.813
						c-29.819-1.226-54.063,18.476-54.063,44.011v1340.443v378.646c0,25.535,24.244,44.842,54.063,43.13l2579.476-148.125
						c21.949-1.26,39.697-19.968,39.697-41.79v-335.085V1218.072C3261.854,1196.251,3244.106,1177.832,3222.157,1176.929z"/>
					
						<linearGradient id="SVGID_00000014623035955460064880000005821619115110039226_" gradientUnits="userSpaceOnUse" x1="3048.2883" y1="570.6578" x2="-550.4719" y2="4691.4619">
						<stop  offset="0.0036" style="stop-color:#E38DDD"/>
						<stop  offset="1" style="stop-color:#9571F6"/>
					</linearGradient>
					<path style="fill:url(#SVGID_00000014623035955460064880000005821619115110039226_);" d="M642.68,2730.625
						c-11.609,0.574-21.064-7.041-21.064-16.972V1116.098c0-9.931,9.455-17.639,21.064-17.179l2579.476,102.159
						c8.561,0.339,15.52,7.544,15.52,16.059v1369.761c0,8.515-6.959,15.789-15.52,16.212L642.68,2730.625z"/>
				</g>
				<path style="opacity:0.5;fill:#FFFFFF;" d="M2952.87,2656.735c-217.01-134.238-65.435-515.91-309.144-707.678
					c-245.703-193.338-591.437,43.789-763.547-156.434c-128.151-149.084,21.799-329.097-100.565-469.302
					c-191.892-219.873-683.121,82.526-908.808-134.087c-32.043-30.755-64.379-77.413-82.782-152.271l-145.344-6.298
					c-55.777-2.417-101.409,34.511-101.409,82.33v1723.518c0,47.82,45.631,84.004,101.409,80.679l2579.476-153.776
					c40.95-2.441,74.109-37.506,74.109-78.176v-26.061C3124.987,2717.298,3020.281,2698.434,2952.87,2656.735z"/>
			</g>
			<g>
				<polygon style="fill:#F4F7FA;" points="785.898,2600.329 1406.76,2574.423 1406.76,2248.926 785.898,2263.982 				"/>
				<g style="opacity:0.8;">
					<g style="opacity:0.7;">
						<polygon style="fill:#F4F7FA;" points="2449.134,2039.856 2543.459,2038.554 2543.459,1348.917 2449.134,1346.499 						"/>
						<polygon style="fill:#F4F7FA;" points="2278.911,2042.204 2375.065,2040.878 2375.065,1692.739 2278.911,1692.17 						"/>
						<polygon style="fill:#F4F7FA;" points="2105.357,2044.599 2203.396,2043.246 2203.396,1273.588 2105.357,1270.709 						"/>
						<polygon style="fill:#F4F7FA;" points="1928.376,2047.041 2028.355,2045.661 2028.354,1383.738 1928.376,1381.442 						"/>
						<polygon style="fill:#F4F7FA;" points="1747.869,2049.531 1849.845,2048.125 1849.845,1868.878 1747.869,1869.28 						"/>
						<polygon style="fill:#F4F7FA;" points="1563.724,2052.072 1667.758,2050.637 1667.758,1625.111 1563.724,1624.136 						"/>
						<polygon style="fill:#F4F7FA;" points="1375.831,2054.665 1481.987,2053.2 1481.987,1433.71 1375.831,1431.63 						"/>
						<polygon style="fill:#F4F7FA;" points="1184.08,2057.31 1292.423,2055.815 1292.423,1599.426 1184.08,1598.282 						"/>
						<polygon style="fill:#F4F7FA;" points="988.342,2060.011 1098.941,2058.485 1098.941,1343.249 988.343,1340.597 						"/>
						<polygon style="fill:#F4F7FA;" points="788.498,2062.768 901.423,2061.21 901.423,1257.916 788.498,1254.733 						"/>
					</g>
				</g>
				<polygon style="fill:#F4F7FA;" points="2630.082,2523.38 3094.071,2504.02 3094.071,2457.064 2630.082,2475.138 				"/>
				<polygon style="fill:#F4F7FA;" points="2630.082,1900.627 3094.071,1897.871 3094.071,1850.915 2630.082,1852.385 				"/>
				<polygon style="fill:#F4F7FA;" points="2630.082,1818.043 3094.071,1817.488 3094.071,1770.532 2630.082,1769.8 				"/>
				<polygon style="fill:#F4F7FA;" points="2630.082,2456.692 2705.698,2453.827 2705.698,2379.836 2630.082,2382.379 				"/>
				<g>
					<path style="fill:#D8DEE8;" d="M2686.09,2212.9c0,98.125,80.655,174.914,179.121,171.546
						c97.35-3.33,175.46-83.923,175.46-180.042c0-96.121-78.111-172.97-175.46-171.634
						C2766.745,2034.121,2686.09,2114.774,2686.09,2212.9z"/>
					<path style="opacity:0.35;fill:#FFFFFF;" d="M2696.484,2207.377c2.229-70.667,48.793-131.003,112.809-154.329
						c17.533-6.389,36.347-10.026,55.918-10.306c91.857-1.313,165.605,71.176,165.605,161.897
						c0,90.721-73.747,166.745-165.605,169.833c-92.851,3.122-168.862-69.313-168.862-161.819
						C2696.349,2210.886,2696.429,2209.135,2696.484,2207.377z"/>
					<path style="fill:#F4F7FA;" d="M2696.484,2207.377c2.229-70.667,48.793-131.003,112.809-154.329
						c17.533-6.389,36.347-10.026,55.918-10.306c91.857-1.313,165.605,71.176,165.605,161.897
						c0,90.721-73.747,166.745-165.605,169.833c-92.851,3.122-168.862-69.313-168.862-161.819
						C2696.349,2210.886,2696.429,2209.135,2696.484,2207.377z"/>
					<g>
						<path style="fill:#FFFFFF;" d="M2696.484,2207.377c2.229-70.667,48.793-131.003,112.809-154.329l55.918,155.56
							L2696.484,2207.377z"/>
					</g>
				</g>
				<g style="opacity:0.8;">
					<path style="fill:#F4F7FA;" d="M956.411,2395.443c39.44,1.487,45.298-21.348,84.13-23.561
						c65.861-3.75,81.991,60.348,145.454,59.37c51.805-0.8,64.84-44.076,116.126-39.28c38.124,3.565,45.628,28.945,82.797,32.588
						c7.421,0.727,14.723,0.444,21.843-0.598v150.46l-620.862,25.906v-266.21c33.279,2.397,57.574,9.927,74.973,17.554
						C902.726,2370.02,916.617,2393.943,956.411,2395.443z"/>
				</g>
				<polygon style="fill:#F4F7FA;" points="2611.41,1704.361 3094.071,1706.838 3094.071,1299.748 2611.41,1286.12 				"/>
				<polygon style="fill:#F4F7FA;" points="788.498,2227.055 2543.459,2187.859 2543.459,2114.289 788.498,2146.102 				"/>
				<polygon style="fill:#F4F7FA;" points="1481.987,2571.284 2543.459,2526.994 2543.459,2216.318 1481.987,2241.752 				"/>
				<path style="fill:#FFFFFF;" d="M3063.782,1406.618c-0.062,0-0.125-0.001-0.188-0.003l-422.077-10.609
					c-4.041-0.101-7.234-3.459-7.132-7.501c0.102-4.041,3.488-7.26,7.5-7.132l422.077,10.609c4.041,0.101,7.234,3.459,7.133,7.5
					C3070.996,1403.461,3067.74,1406.618,3063.782,1406.618z"/>
				<g>
					<polygon style="fill:#FFFFFF;" points="2823.192,1473.686 2770.835,1472.157 2770.835,1435.832 2823.192,1437.7 					"/>
					<polygon style="fill:#FFFFFF;" points="2886.671,1475.539 2835.514,1474.045 2835.514,1438.14 2886.671,1439.967 					"/>
					<polygon style="fill:#FFFFFF;" points="2948.709,1477.35 2898.712,1475.89 2898.712,1440.396 2948.709,1442.181 					"/>
					<polygon style="fill:#FFFFFF;" points="3009.357,1479.12 2960.479,1477.693 2960.479,1442.601 3009.357,1444.346 					"/>
					<polygon style="fill:#FFFFFF;" points="3068.658,1480.851 3020.864,1479.456 3020.864,1444.757 3068.658,1446.463 					"/>
					<polygon style="fill:#FFFFFF;" points="2691.709,1524.971 2636.822,1523.903 2636.822,1486.706 2691.709,1488.131 					"/>
					<polygon style="fill:#FFFFFF;" points="2758.223,1526.266 2704.623,1525.222 2704.623,1488.466 2758.223,1489.858 					"/>
					<polygon style="fill:#FFFFFF;" points="2823.192,1527.53 2770.835,1526.511 2770.835,1490.186 2823.192,1491.545 					"/>
					<polygon style="fill:#FFFFFF;" points="2886.671,1528.766 2835.514,1527.77 2835.514,1491.865 2886.671,1493.193 					"/>
					<polygon style="fill:#FFFFFF;" points="2948.709,1529.973 2898.712,1529 2898.712,1493.506 2948.709,1494.804 					"/>
					<polygon style="fill:#FFFFFF;" points="3009.357,1531.153 2960.479,1530.202 2960.479,1495.11 3009.357,1496.379 					"/>
					<polygon style="fill:#FFFFFF;" points="3068.658,1532.307 3020.864,1531.377 3020.864,1496.678 3068.658,1497.919 					"/>
					<polygon style="fill:#FFFFFF;" points="2691.709,1580.095 2636.822,1579.561 2636.822,1542.364 2691.709,1543.255 					"/>
					<polygon style="fill:#FFFFFF;" points="2758.223,1580.742 2704.623,1580.221 2704.623,1543.465 2758.223,1544.335 					"/>
					<polygon style="fill:#FFFFFF;" points="2823.192,1581.375 2770.835,1580.865 2770.835,1544.54 2823.192,1545.39 					"/>
					<polygon style="fill:#FFFFFF;" points="2886.671,1581.992 2835.514,1581.495 2835.514,1545.59 2886.671,1546.42 					"/>
					<polygon style="fill:#FFFFFF;" points="2948.709,1582.596 2898.712,1582.109 2898.712,1546.616 2948.709,1547.427 					"/>
					<polygon style="fill:#FFFFFF;" points="3009.357,1583.186 2960.479,1582.711 2960.479,1547.618 3009.357,1548.412 					"/>
					<polygon style="fill:#FFFFFF;" points="3068.658,1583.763 3020.864,1583.298 3020.864,1548.599 3068.658,1549.375 					"/>
					<polygon style="fill:#FFFFFF;" points="2691.709,1635.219 2636.822,1635.219 2636.822,1598.022 2691.709,1598.379 					"/>
					<polygon style="fill:#FFFFFF;" points="2758.223,1635.219 2704.623,1635.219 2704.623,1598.463 2758.223,1598.812 					"/>
					<polygon style="fill:#FFFFFF;" points="2823.192,1635.219 2770.835,1635.219 2770.835,1598.894 2823.192,1599.234 					"/>
					<polygon style="fill:#FFFFFF;" points="2886.671,1635.219 2835.514,1635.219 2835.514,1599.314 2886.671,1599.647 					"/>
					<polygon style="fill:#FFFFFF;" points="2948.709,1635.219 2898.712,1635.219 2898.712,1599.725 2948.709,1600.051 					"/>
				</g>
			</g>
		</g>
		<g>
			<path style="opacity:0.75;fill:#F4F7FA;" d="M1285.888,1128.708c0-125.495-106.843-227.229-238.641-227.229
				s-238.64,101.734-238.64,227.229c0,76.16,39.353,143.565,99.751,184.794c25.624,17.491,41.164,46.32,41.164,77.344v17.389
				c0,37.782,30.628,68.41,68.411,68.41h58.629c37.782,0,68.41-30.628,68.41-68.41v-17.389c0-31.024,15.54-59.853,41.164-77.344
				C1246.535,1272.273,1285.888,1204.867,1285.888,1128.708z"/>
			
				<linearGradient id="SVGID_00000018942459982804979180000001224939767743775398_" gradientUnits="userSpaceOnUse" x1="1042.2772" y1="1617.7246" x2="1046.5155" y2="1583.8184">
				<stop  offset="0.0036" style="stop-color:#26264F"/>
				<stop  offset="1" style="stop-color:#444B8C"/>
			</linearGradient>
			
				<ellipse style="fill:url(#SVGID_00000018942459982804979180000001224939767743775398_);" cx="1047.248" cy="1577.958" rx="52.937" ry="28.026"/>
			
				<linearGradient id="SVGID_00000034061510071830767000000015269223749953182351_" gradientUnits="userSpaceOnUse" x1="1024.8462" y1="1586.8219" x2="1067.2291" y2="1510.5325">
				<stop  offset="0.0036" style="stop-color:#26264F"/>
				<stop  offset="1" style="stop-color:#444B8C"/>
			</linearGradient>
			<path style="fill:url(#SVGID_00000034061510071830767000000015269223749953182351_);" d="M976.914,1527.892v28.621
				c0,9.683,5.511,18.556,14.251,22.724c12.134,5.786,32.308,12.137,61.628,11.386c23.786-0.609,39.296-4.494,49.157-8.575
				c9.526-3.943,15.632-13.362,15.632-23.672v-15.836L976.914,1527.892z"/>
			
				<linearGradient id="SVGID_00000164478933941670608680000010748997542213349017_" gradientUnits="userSpaceOnUse" x1="976.9143" y1="1550.6685" x2="1117.5817" y2="1550.6685">
				<stop  offset="0.0036" style="stop-color:#26264F"/>
				<stop  offset="1" style="stop-color:#444B8C"/>
			</linearGradient>
			<path style="opacity:0.3;fill:url(#SVGID_00000164478933941670608680000010748997542213349017_);" d="M976.914,1552.961
				c2.144,2.084,4.627,3.852,7.416,5.182c13.613,6.492,102.778,20.997,124.287,12.916c2.793-1.049,5.306-2.453,7.507-4.147
				c0.941-2.703,1.458-5.58,1.458-8.537v-15.836l-140.667-14.648V1552.961z"/>
			
				<linearGradient id="SVGID_00000093899121018174301090000003186901804081480123_" gradientUnits="userSpaceOnUse" x1="1028.8806" y1="1565.975" x2="1070.734" y2="1485.4471">
				<stop  offset="0.0036" style="stop-color:#26264F"/>
				<stop  offset="1" style="stop-color:#444B8C"/>
			</linearGradient>
			<path style="fill:url(#SVGID_00000093899121018174301090000003186901804081480123_);" d="M983.159,1508.419
				c-7.922-0.825-14.817,5.389-14.817,13.354v0.811c0,10.864,6.182,20.817,15.988,25.493
				c13.613,6.492,102.778,20.997,124.287,12.916c10.827-4.068,17.537-13.364,17.537-24.93v-0.653
				c0-6.877-5.196-12.642-12.036-13.354L983.159,1508.419z"/>
			
				<linearGradient id="SVGID_00000025416731364369436510000008600893348186373026_" gradientUnits="userSpaceOnUse" x1="970.6118" y1="1526.9606" x2="1123.8143" y2="1526.9606">
				<stop  offset="0.0036" style="stop-color:#26264F"/>
				<stop  offset="1" style="stop-color:#444B8C"/>
			</linearGradient>
			<path style="opacity:0.3;fill:url(#SVGID_00000025416731364369436510000008600893348186373026_);" d="M1114.118,1522.056
				l-130.959-13.637c-5.167-0.538-9.882,1.928-12.547,5.91c2.631,6.199,7.421,11.384,13.718,14.387
				c13.613,6.492,106.576,22.888,124.287,14.543c6.894-3.249,12.301-8.733,15.198-15.4
				C1121.656,1524.694,1118.183,1522.479,1114.118,1522.056z"/>
			
				<linearGradient id="SVGID_00000087391732209700858290000003356603389092952232_" gradientUnits="userSpaceOnUse" x1="968.3422" y1="1499.2794" x2="1126.1538" y2="1499.2794">
				<stop  offset="0.0036" style="stop-color:#26264F"/>
				<stop  offset="1" style="stop-color:#444B8C"/>
			</linearGradient>
			<path style="fill:url(#SVGID_00000087391732209700858290000003356603389092952232_);" d="M978.036,1462.049
				c-5.354,0-9.693,4.34-9.693,9.693v22.416c0,10.863,6.182,20.817,15.988,25.493c13.613,6.492,106.576,22.889,124.287,14.543
				c10.463-4.931,17.537-14.991,17.537-26.557v-35.894c0-5.354-4.34-9.693-9.693-9.693H978.036z"/>
			
				<linearGradient id="SVGID_00000049937243595678443160000000970145751735580851_" gradientUnits="userSpaceOnUse" x1="1043.3287" y1="1487.3759" x2="1058.8691" y2="1414.6185">
				<stop  offset="0.0036" style="stop-color:#26264F"/>
				<stop  offset="1" style="stop-color:#444B8C"/>
			</linearGradient>
			
				<ellipse style="fill:url(#SVGID_00000049937243595678443160000000970145751735580851_);" cx="1047.248" cy="1469.027" rx="76.954" ry="18.194"/>
			
				<linearGradient id="SVGID_00000042728496750437350210000007403578491303872129_" gradientUnits="userSpaceOnUse" x1="1013.4849" y1="1081.3989" x2="1321.8046" y2="1570.8961">
				<stop  offset="0" style="stop-color:#FCB148"/>
				<stop  offset="0.0521" style="stop-color:#FDBA46"/>
				<stop  offset="0.1424" style="stop-color:#FFC244"/>
				<stop  offset="0.3183" style="stop-color:#FFC444"/>
				<stop  offset="0.4849" style="stop-color:#FDB946"/>
				<stop  offset="0.7754" style="stop-color:#F99C4D"/>
				<stop  offset="0.8658" style="stop-color:#F8924F"/>
				<stop  offset="1" style="stop-color:#F8924F"/>
			</linearGradient>
			<path style="fill:url(#SVGID_00000042728496750437350210000007403578491303872129_);" d="M1285.888,1128.708
				c0-125.495-106.843-227.229-238.641-227.229s-238.64,101.734-238.64,227.229c0,76.16,39.353,143.565,99.751,184.794
				c25.624,17.491,41.164,46.32,41.164,77.344v17.389c0,37.782,30.628,68.41,68.411,68.41h58.629c37.782,0,68.41-30.628,68.41-68.41
				v-17.389c0-31.024,15.54-59.853,41.164-77.344C1246.535,1272.273,1285.888,1204.867,1285.888,1128.708z"/>
			<ellipse style="opacity:0.5;fill:#F4F7FA;" cx="1047.248" cy="1454.681" rx="56.309" ry="13.313"/>
			<g>
				
					<linearGradient id="SVGID_00000111153792098853703050000009859614121672647056_" gradientUnits="userSpaceOnUse" x1="957.1588" y1="1458.306" x2="1020.0269" y2="1274.6466">
					<stop  offset="0.494" style="stop-color:#EBEFF2"/>
					<stop  offset="1" style="stop-color:#FFFFFF"/>
				</linearGradient>
				<path style="fill:url(#SVGID_00000111153792098853703050000009859614121672647056_);" d="M1032.574,1462.816
					c-1.613,0-3.012-1.198-3.224-2.839l-41.425-322.149c-0.229-1.783,1.03-3.413,2.813-3.642c1.786-0.24,3.413,1.03,3.642,2.812
					l41.425,322.149c0.229,1.783-1.03,3.413-2.813,3.642C1032.852,1462.808,1032.712,1462.816,1032.574,1462.816z"/>
				
					<linearGradient id="SVGID_00000072976067607266491370000002875414994041270163_" gradientUnits="userSpaceOnUse" x1="1017.2625" y1="1478.8799" x2="1080.1307" y2="1295.2203">
					<stop  offset="0.494" style="stop-color:#EBEFF2"/>
					<stop  offset="1" style="stop-color:#FFFFFF"/>
				</linearGradient>
				<path style="fill:url(#SVGID_00000072976067607266491370000002875414994041270163_);" d="M1058.304,1462.816
					c-0.138,0-0.278-0.008-0.419-0.027c-1.783-0.229-3.042-1.859-2.813-3.642l41.426-322.149c0.229-1.783,1.858-3.054,3.642-2.812
					c1.783,0.229,3.042,1.859,2.813,3.642l-41.426,322.149C1061.316,1461.618,1059.917,1462.816,1058.304,1462.816z"/>
				
					<linearGradient id="SVGID_00000031185708199591105840000008007600837505528228_" gradientUnits="userSpaceOnUse" x1="935.2664" y1="1450.8121" x2="998.1346" y2="1267.1526">
					<stop  offset="0.494" style="stop-color:#EBEFF2"/>
					<stop  offset="1" style="stop-color:#FFFFFF"/>
				</linearGradient>
				<path style="fill:url(#SVGID_00000031185708199591105840000008007600837505528228_);" d="M1092.041,1137.567
					c-1.057,0-2.095-0.515-2.72-1.463l-11.433-17.344c-0.118-0.178-0.299-0.281-0.464-0.261c-0.283,0.007-0.403,0.208-0.442,0.273
					l-7.548,12.643c-1.251,2.094-3.444,3.381-5.866,3.441c-2.407,0.078-4.682-1.117-6.04-3.151l-10.364-15.539
					c-0.113-0.168-0.264-0.256-0.448-0.257c-0.22,0.041-0.323,0.078-0.434,0.237l-9.105,13.161c-1.315,1.902-3.471,3.04-5.768,3.044
					c-0.005,0-0.01,0-0.014,0c-2.296,0-4.456-1.131-5.78-3.03l-13.126-18.804c-0.118-0.17-0.285-0.229-0.463-0.246
					c-0.188,0.008-0.334,0.103-0.438,0.281l-11.981,20.682c-0.9,1.554-2.893,2.085-4.446,1.184
					c-1.556-0.901-2.085-2.892-1.185-4.447l11.981-20.683c1.219-2.102,3.385-3.418,5.796-3.519c2.391-0.122,4.682,1.03,6.073,3.024
					l13.126,18.804c0.114,0.162,0.263,0.246,0.443,0.246c0.176-0.002,0.322-0.081,0.431-0.238l9.105-13.161
					c1.332-1.924,3.526-3.07,5.841-3.043c2.332,0.021,4.503,1.2,5.807,3.156l10.364,15.538c0.117,0.175,0.292,0.321,0.464,0.256
					c0.282-0.006,0.401-0.207,0.44-0.272l7.548-12.643c1.256-2.102,3.457-3.389,5.887-3.443c2.406-0.054,4.692,1.138,6.042,3.186
					l11.433,17.344c0.989,1.5,0.574,3.518-0.927,4.508C1093.277,1137.394,1092.655,1137.567,1092.041,1137.567z"/>
			</g>
			
				<linearGradient id="SVGID_00000069374557660884285740000009331734242833864591_" gradientUnits="userSpaceOnUse" x1="1024.3046" y1="971.0621" x2="962.8491" y2="1477.5385">
				<stop  offset="0" style="stop-color:#FCB148"/>
				<stop  offset="0.0521" style="stop-color:#FDBA46"/>
				<stop  offset="0.1424" style="stop-color:#FFC244"/>
				<stop  offset="0.3183" style="stop-color:#FFC444"/>
				<stop  offset="0.4849" style="stop-color:#FDB946"/>
				<stop  offset="0.7754" style="stop-color:#F99C4D"/>
				<stop  offset="0.8658" style="stop-color:#F8924F"/>
				<stop  offset="1" style="stop-color:#F8924F"/>
			</linearGradient>
			<path style="opacity:0.3;fill:url(#SVGID_00000069374557660884285740000009331734242833864591_);" d="M1051.579,1307.938
				c5.112-87.581,152.759-108.078,152.126-186.294c-0.39-48.172-59.061-83.948-71.589-91.113
				c-92.316-52.8-205.943,8.172-229.409-34.981c-5.843-10.744-3.103-22.44-1.543-29.1c2.358-10.066,7.697-19.443,15.616-28.018
				c-65.132,40.574-108.172,110.633-108.172,190.275c0,76.16,39.353,143.566,99.751,184.794
				c25.624,17.491,41.164,46.32,41.164,77.344v17.389c0,37.782,30.629,68.41,68.411,68.41h58.629c37.782,0,68.41-30.628,68.41-68.41
				v-13.903c-8.069,6.184-17.337,10.497-27.5,10.414C1082.211,1404.456,1049.035,1351.521,1051.579,1307.938z"/>
			<ellipse style="opacity:0.44;fill:#F4F7FA;" cx="1051.065" cy="1137.567" rx="205.355" ry="198.042"/>
		</g>
		<g>
			
				<linearGradient id="SVGID_00000036219573448746272290000012231199190508727183_" gradientUnits="userSpaceOnUse" x1="2563.7144" y1="1980.6737" x2="2699.4824" y2="2118.866">
				<stop  offset="0" style="stop-color:#FFC444"/>
				<stop  offset="0.9964" style="stop-color:#F36F56"/>
			</linearGradient>
			<path style="fill:url(#SVGID_00000036219573448746272290000012231199190508727183_);" d="M2612.335,2054.485
				c0,0,10.319-35.787,3-45.967c-7.319-10.181-21.151-45.967-22.565-37.329c-1.414,8.638,6.916,29.617,6.916,29.617
				s-25.915,8.947-17.585,23.755c8.33,14.808,12.082,21.904,10.669,26.223C2591.357,2055.102,2610.484,2057.57,2612.335,2054.485z"
				/>
			
				<linearGradient id="SVGID_00000102523654238761921750000016620293016842526102_" gradientUnits="userSpaceOnUse" x1="-321.5975" y1="2915.0134" x2="-205.0179" y2="3335.7141" gradientTransform="matrix(0.9968 0.0799 -0.0799 0.9968 3360.9282 65.4365)">
				<stop  offset="0" style="stop-color:#311944"/>
				<stop  offset="1" style="stop-color:#893976"/>
			</linearGradient>
			<path style="fill:url(#SVGID_00000102523654238761921750000016620293016842526102_);" d="M2902.904,3192.329
				c0,0,3.742,22.905,3.265,31.056c-0.475,8.152-90.935,12.319-91.848,6.212c-0.914-6.107,14.952-15.817,26.119-19.244
				c11.167-3.428,43.852-12.574,43.852-12.574L2902.904,3192.329z"/>
			
				<linearGradient id="SVGID_00000070821405166921371230000002184118668112443289_" gradientUnits="userSpaceOnUse" x1="-217.8423" y1="3212.4526" x2="-216.1527" y2="3070.5293" gradientTransform="matrix(0.9968 0.0799 -0.0799 0.9968 3360.9282 65.4365)">
				<stop  offset="0" style="stop-color:#FFC444"/>
				<stop  offset="0.9964" style="stop-color:#F36F56"/>
			</linearGradient>
			<path style="fill:url(#SVGID_00000070821405166921371230000002184118668112443289_);" d="M2880.947,3169.494l2.885,28.481
				c0,0,10.508,6.944,19.766,1.584l4.633-31L2880.947,3169.494z"/>
			
				<linearGradient id="SVGID_00000135675501826158586250000011343153490283119527_" gradientUnits="userSpaceOnUse" x1="-175.6433" y1="2874.5613" x2="-59.0626" y2="3295.2656" gradientTransform="matrix(0.9968 0.0799 -0.0799 0.9968 3360.9282 65.4365)">
				<stop  offset="0" style="stop-color:#311944"/>
				<stop  offset="1" style="stop-color:#893976"/>
			</linearGradient>
			<path style="fill:url(#SVGID_00000135675501826158586250000011343153490283119527_);" d="M3064.299,3229.459
				c0,0,3.743,22.904,3.267,31.056c-0.476,8.152-90.936,12.319-91.849,6.212c-0.914-6.106,14.952-15.817,26.119-19.245
				c11.167-3.427,43.851-12.574,43.851-12.574L3064.299,3229.459z"/>
			
				<linearGradient id="SVGID_00000142860265330854327380000013232140221709236915_" gradientUnits="userSpaceOnUse" x1="-53.7321" y1="3214.4031" x2="-52.0424" y2="3072.4778" gradientTransform="matrix(0.9968 0.0799 -0.0799 0.9968 3360.9282 65.4365)">
				<stop  offset="0" style="stop-color:#FFC444"/>
				<stop  offset="0.9964" style="stop-color:#F36F56"/>
			</linearGradient>
			<path style="fill:url(#SVGID_00000142860265330854327380000013232140221709236915_);" d="M3042.342,3206.625l2.886,28.481
				c0,0,10.507,6.945,19.766,1.584l4.632-31L3042.342,3206.625z"/>
			
				<linearGradient id="SVGID_00000026852491160621738840000000627804277841220767_" gradientUnits="userSpaceOnUse" x1="2892.0513" y1="2538.0552" x2="2992.3062" y2="3050.6067">
				<stop  offset="0" style="stop-color:#311944"/>
				<stop  offset="1" style="stop-color:#893976"/>
			</linearGradient>
			<path style="fill:url(#SVGID_00000026852491160621738840000000627804277841220767_);" d="M2897.362,2425.975
				c-10.456,21.198-20.912,42.397-31.369,63.594c-8.409,120.975-12.588,252.521-9.904,393.202
				c1.997,104.666,7.591,203.816,15.625,296.886c14.177-0.649,28.354-1.303,42.531-1.952c20.5-40.686,44.7-102.327,46.927-178.417
				c2.323-79.369-21.739-89.907-20.213-165.901c1.979-98.496,43.281-124.775,65.286-243.252
				c8.415-45.309,14.081-104.489,7.346-176.287C2974.847,2417.89,2936.105,2421.936,2897.362,2425.975z"/>
			
				<linearGradient id="SVGID_00000073703428198629056160000012429912136631733660_" gradientUnits="userSpaceOnUse" x1="-299.6628" y1="2756.0132" x2="-148.5578" y2="2756.0132" gradientTransform="matrix(0.9968 0.0799 -0.0799 0.9968 3360.9282 65.4365)">
				<stop  offset="0" style="stop-color:#311944"/>
				<stop  offset="1" style="stop-color:#893976"/>
			</linearGradient>
			<path style="opacity:0.3;fill:url(#SVGID_00000073703428198629056160000012429912136631733660_);" d="M3013.591,2413.849
				c-20.924,2.182-41.847,4.364-62.771,6.551c-37.665,65.544-48.18,133.765-41.571,163.941c9.35,42.695,34.086,56.371,32.727,99.236
				c-1.345,42.414-26.334,53.412-42.186,103.403c-10.973,34.612-8.078,66.435-1.835,128.67
				c12.573,125.36,42.844,163.698,17.488,204.799c-7.206,11.678-20.187,25.586-45.622,36.205c0.623,7.687,1.236,15.399,1.893,23.005
				c14.177-0.647,28.354-1.303,42.531-1.95c20.501-40.691,44.7-102.328,46.927-178.419c2.323-79.37-21.739-89.909-20.213-165.902
				c1.979-98.496,43.281-124.773,65.285-243.25C3014.66,2544.828,3020.326,2485.648,3013.591,2413.849z"/>
			
				<linearGradient id="SVGID_00000124142922680229019600000014950809625046002361_" gradientUnits="userSpaceOnUse" x1="-214.3553" y1="2777.5979" x2="15.0361" y2="2777.5979" gradientTransform="matrix(0.9968 0.0799 -0.0799 0.9968 3360.9282 65.4365)">
				<stop  offset="0" style="stop-color:#311944"/>
				<stop  offset="1" style="stop-color:#893976"/>
			</linearGradient>
			<path style="fill:url(#SVGID_00000124142922680229019600000014950809625046002361_);" d="M2953.615,2464.139
				c19.628,107.031,36.965,221.58,50.492,343.064c16.333,146.682,25.049,284.967,28.476,413.358
				c15.56,0.443,31.121,0.88,46.682,1.322c61.317-121.301,65.063-203.542,56.222-257.086c-3.407-20.633-12.66-61.091-14.772-121.555
				c-1.471-42.148,1.217-74.224,4.576-112.783c7.363-84.542,16.3-102.999,17.584-167.665c1.207-60.689,1.455-91.397-15.869-109.322
				C3081.363,2406.25,2962.623,2459.959,2953.615,2464.139z"/>
			
				<linearGradient id="SVGID_00000004546180339210334710000004656461613194937472_" gradientUnits="userSpaceOnUse" x1="2744.72" y1="2062.3149" x2="2913.8909" y2="3148.7695">
				<stop  offset="0" style="stop-color:#FFC444"/>
				<stop  offset="0.9964" style="stop-color:#F36F56"/>
			</linearGradient>
			<path style="fill:url(#SVGID_00000004546180339210334710000004656461613194937472_);" d="M2617.076,2045.085
				c-10.349-0.722-20.696-1.444-31.045-2.166c-24.413,98.651-6.903,194.347,48.197,229.541
				c86.085,54.985,246.071-48.609,280.741-161.41c15.218-49.511,11.753-120.964-18.661-134.846
				c-8.442-3.855-21.542-4.453-49.925,11.482c-84.761,47.589-86.989,137.532-130.079,145.149
				C2697.146,2136.222,2666.208,2124.007,2617.076,2045.085z"/>
			
				<linearGradient id="SVGID_00000173878358309905844880000007345199528110432686_" gradientUnits="userSpaceOnUse" x1="-0.7558" y1="3199.7222" x2="168.4149" y2="4286.1763" gradientTransform="matrix(0.9968 0.0799 -0.0799 0.9968 3360.9282 65.4365)">
				<stop  offset="0" style="stop-color:#FFC444"/>
				<stop  offset="0.9964" style="stop-color:#F36F56"/>
			</linearGradient>
			<path style="fill:url(#SVGID_00000173878358309905844880000007345199528110432686_);" d="M2854.083,2511.274
				c-14.909-24.738,3.817-48.597,8.08-95.465c4.83-53.119-15.632-61.964-35.87-149.995
				c-13.458-58.547-26.377-114.752-10.957-180.544c7.39-31.531,19.924-85.011,64.185-110.843
				c22.841-13.33,54.026-11.997,115.465-8.782c75.977,3.973,113.964,5.958,142.294,20.877c4.147,2.185,90.336,49.065,96.268,125.482
				c6.039,77.775-78.663,88.23-89.959,191.948c-5.072,46.56,3.969,118.171,9.831,164.618c5.629,44.597,9.503,56.017,0.702,69.518
				c-21.212,32.544-86.153,23.268-216.037,4.721C2887.137,2535.533,2865.208,2529.734,2854.083,2511.274z"/>
			
				<linearGradient id="SVGID_00000183950240357866267070000010706953137451909257_" gradientUnits="userSpaceOnUse" x1="246.663" y1="2804.8235" x2="-265.2862" y2="2069.8467" gradientTransform="matrix(0.9968 0.0799 -0.0799 0.9968 3360.9282 65.4365)">
				<stop  offset="0" style="stop-color:#FFC444"/>
				<stop  offset="0.9964" style="stop-color:#F36F56"/>
			</linearGradient>
			<path style="opacity:0.3;fill:url(#SVGID_00000183950240357866267070000010706953137451909257_);" d="M3051.702,2287.267
				c5.492,20.215,25.244,35.314,38.994,84.484c2.968,10.617,24.111,86.217-3.314,104.826c-15.842,10.747-30.063-9.615-68.51-12.274
				c-66.623-4.608-98.361,51.385-141.881,36.095c-7.55-2.657-17.519-8.312-27.472-21.31c-1.982,11.713-1.642,21.885,4.565,32.186
				c11.125,18.46,33.053,24.259,84.001,31.535c129.884,18.546,194.825,27.823,216.037-4.721c8.801-13.502,4.927-24.921-0.702-69.518
				c-5.862-46.447-14.902-118.058-9.831-164.618c11.297-103.718,95.999-114.172,89.959-191.948
				c-1.614-20.792-9.263-39.306-19.49-55.42C3106.609,2100.063,3034.439,2223.743,3051.702,2287.267z"/>
			
				<linearGradient id="SVGID_00000016051187991719354020000001094159645693127614_" gradientUnits="userSpaceOnUse" x1="3222.6162" y1="2346.1575" x2="3127.3738" y2="2474.8179">
				<stop  offset="0" style="stop-color:#FFC444"/>
				<stop  offset="0.9964" style="stop-color:#F36F56"/>
			</linearGradient>
			<path style="fill:url(#SVGID_00000016051187991719354020000001094159645693127614_);" d="M3187.417,2440.258l-21.498,13.726
				c-3.86-4.457-12.796-13.45-26.75-16.52c-15.72-3.455-33.766,1.5-34.186,6.518c-0.337,4.02,10.652,8.073,12.35,8.701
				c13.716,5.062,23.893,0.858,29.438,6.372c1.961,1.95,4.406,5.576,10.026,8.937c1.475,0.883,3.023,1.663,3.838,1.981
				c9.154,3.56,24.858-12.378,26.209-13.77L3187.417,2440.258z"/>
			
				<linearGradient id="SVGID_00000026858172964620657940000007944544602079773577_" gradientUnits="userSpaceOnUse" x1="197.3223" y1="3168.8809" x2="366.4934" y2="4255.3374" gradientTransform="matrix(0.9968 0.0799 -0.0799 0.9968 3360.9282 65.4365)">
				<stop  offset="0" style="stop-color:#FFC444"/>
				<stop  offset="0.9964" style="stop-color:#F36F56"/>
			</linearGradient>
			<path style="fill:url(#SVGID_00000026858172964620657940000007944544602079773577_);" d="M3123.903,2158.302
				c-15.552-37.247-26.326-94.273-1.763-178.963c161.85,63.775,244.394,214.962,212.164,334.811
				c-26.569,98.801-123.231,146.924-144.793,157.049c-5.017-11.421-10.035-22.837-15.052-34.258
				c24.989-27.827,53.147-68.971,49.164-115.923C3218.104,2255.925,3155.389,2233.708,3123.903,2158.302z"/>
			
				<linearGradient id="SVGID_00000177465913260551631270000012925207095583920772_" gradientUnits="userSpaceOnUse" x1="-2030.5562" y1="3432.3179" x2="-2030.5562" y2="3285.967" gradientTransform="matrix(0.7795 0.6265 -0.6265 0.7795 6685.311 622.2045)">
				<stop  offset="0" style="stop-color:#FFC444"/>
				<stop  offset="0.9964" style="stop-color:#F36F56"/>
			</linearGradient>
			<path style="fill:url(#SVGID_00000177465913260551631270000012925207095583920772_);" d="M2998.964,1889.02
				c0,0,1.278,28.313,10.067,49.515c7.942,19.163,49.717,31.209,58.184,35.486c8.469,4.277-15.864,16.78-40.3,19.237
				c-24.434,2.457-94.218-3.092-106.797-12.355c-12.579-9.263,10.108-8.566,27.55-14.97c17.44-6.402,27.525-40.512,24.447-55.994
				C2969.037,1894.457,2998.964,1889.02,2998.964,1889.02z"/>
			
				<linearGradient id="SVGID_00000011736186286016206660000005352888865652646025_" gradientUnits="userSpaceOnUse" x1="-184.7153" y1="1939.1794" x2="-245.9302" y2="1783.7047" gradientTransform="matrix(0.9968 0.0799 -0.0799 0.9968 3360.9282 65.4365)">
				<stop  offset="0" style="stop-color:#444B8C"/>
				<stop  offset="0.9964" style="stop-color:#3E4177"/>
			</linearGradient>
			<path style="fill:url(#SVGID_00000011736186286016206660000005352888865652646025_);" d="M2960.317,1878.755
				c-12.679-12.457-14.449-13.912-15.83-18.218c-5.541-17.283,7.863-40.95,25.445-46.777c0.915-0.302,12.705-4.077,17.206,1.039
				c3.823,4.344-1.801,10.344,0.873,18.716c2.504,7.838,9.299,8.425,21.892,18.704c10.374,8.464,16.821,13.727,18.308,21.13
				c3.066,15.262-15.408,37.38-31.763,36.778C2990.567,1909.91,2988.967,1906.906,2960.317,1878.755z"/>
			<g>
				
					<linearGradient id="SVGID_00000039092812919338804910000001258385896516848565_" gradientUnits="userSpaceOnUse" x1="-2134.0056" y1="3390.1409" x2="-2065.5813" y2="3257.0933" gradientTransform="matrix(0.7795 0.6265 -0.6265 0.7795 6685.311 622.2045)">
					<stop  offset="0" style="stop-color:#FFC444"/>
					<stop  offset="0.9964" style="stop-color:#F36F56"/>
				</linearGradient>
				<path style="fill:url(#SVGID_00000039092812919338804910000001258385896516848565_);" d="M2994.848,1912.484
					c0,0-13.477,15.26-34.009,10.215c-18.382-4.516-13.692-46.706-0.239-53.447c4.488-2.247,12.642-2.062,18.775,0.893
					c3.623,1.746,4.63,3.559,10.604,6.298c5.51,2.524,7.257,2.174,8.738,3.952c1.855,2.222,2.653,7.006-3.157,18.552
					c4.188-2.963,8.691-3.584,11.455-1.624c0.441,0.314,1.564,1.41,2.048,2.853
					C3010.816,1905.405,3005.384,1910.715,2994.848,1912.484z"/>
			</g>
		</g>
		<g>
			
				<linearGradient id="SVGID_00000118398714763131130750000007550048056400756880_" gradientUnits="userSpaceOnUse" x1="1255.1694" y1="1724.0016" x2="943.6858" y2="3217.4111">
				<stop  offset="0" style="stop-color:#FF9085"/>
				<stop  offset="1" style="stop-color:#FB6FBB"/>
			</linearGradient>
			<path style="fill:url(#SVGID_00000118398714763131130750000007550048056400756880_);" d="M1324.697,2152.146
				c27.099-28.933-47.921-137.631-88.075-185.26c-35.079-41.61-71.133-84.378-115.408-78.963
				c-38.872,4.754-76.697,45.748-78.964,85.038C1036.155,2078.655,1286.172,2193.278,1324.697,2152.146z"/>
			
				<linearGradient id="SVGID_00000114064714068482635580000000438675377591725247_" gradientUnits="userSpaceOnUse" x1="1215.5752" y1="3285.6189" x2="1308.8591" y2="3285.6189" gradientTransform="matrix(-0.9996 0.0289 0.0289 0.9996 2205.6753 -31.2392)">
				<stop  offset="0" style="stop-color:#444B8C"/>
				<stop  offset="0.9964" style="stop-color:#26264F"/>
			</linearGradient>
			<path style="fill:url(#SVGID_00000114064714068482635580000000438675377591725247_);" d="M999.323,3269.112
				c-5.101,4.146-6.04,14.501-6.652,21.27c-0.276,3.024-0.412,4.536-0.074,5.604c2.465,7.79,17.573,8.609,41.264,11.03
				c37.438,3.825,48.58,6.771,51.51,1.201c2.746-5.221-3.899-13.77-4.647-14.713c-4.023-5.067-8.96-6.91-18.506-10.052
				c-17.663-5.814-29.597-8.998-33.211-9.961C1006.443,3267.467,1002.674,3266.39,999.323,3269.112z"/>
			<path style="fill:#D8DEE8;" d="M1021.588,3234.91l3.747,42.663c-1.064,2.06-13.744,8.24-23.817,2.94l-9.626-41.936
				L1021.588,3234.91z"/>
			
				<linearGradient id="SVGID_00000102505203532939419630000009016059333931934141_" gradientUnits="userSpaceOnUse" x1="1722.5713" y1="3230.4314" x2="1821.6796" y2="3230.4314" gradientTransform="matrix(-0.9642 0.2651 0.2651 0.9642 2192.8501 -308.9189)">
				<stop  offset="0" style="stop-color:#444B8C"/>
				<stop  offset="0.9964" style="stop-color:#26264F"/>
			</linearGradient>
			<path style="fill:url(#SVGID_00000102505203532939419630000009016059333931934141_);" d="M1296.236,3263.629
				c-6.114,6.752-7.507,19.185-2.191,25.309c5.226,6.022,13.084,1.505,35.37,2.171c23.872,0.714,30.106,6.352,46.328,1.876
				c6.553-1.812,18.128-6.206,17.909-10.886c-0.154-3.291-6.047-4.99-25.729-11.584c-27.938-9.358-27.814-9.869-33.747-10.853
				C1319.274,3257.194,1304.311,3254.715,1296.236,3263.629z"/>
			<path style="fill:#D8DEE8;" d="M1311.531,3224.694l11.973,39.828c-0.905,2.137-13.077,9.263-23.523,4.749l-17.782-38.657
				L1311.531,3224.694z"/>
			
				<linearGradient id="SVGID_00000140714008748623850420000010654794097869173380_" gradientUnits="userSpaceOnUse" x1="1355.7811" y1="3101.2009" x2="1091.4409" y2="2505.3149">
				<stop  offset="0" style="stop-color:#AA80F9"/>
				<stop  offset="0.9964" style="stop-color:#6165D7"/>
			</linearGradient>
			<path style="fill:url(#SVGID_00000140714008748623850420000010654794097869173380_);" d="M1205.147,2352.406
				c1.715,133.851,10.849,284.351,32.766,447.861c21.66,161.604,52.015,307.621,85.127,436.022
				c-15.277,4.11-30.553,8.22-45.828,12.33c-38.757-36.138-87.647-93.026-111.239-173.418
				c-14.642-49.896-9.762-75.536-19.05-136.907c-14.788-97.716-44.742-148.911-75.701-227.709
				c-27.82-70.808-60.705-174.726-78.337-313.631C1063.64,2382.106,1134.394,2367.256,1205.147,2352.406z"/>
			
				<linearGradient id="SVGID_00000181775827600316599670000002633805844453056436_" gradientUnits="userSpaceOnUse" x1="764.2258" y1="3138.4636" x2="499.8902" y2="2542.5884" gradientTransform="matrix(0.9925 -0.1225 0.1225 0.9925 83.0051 108.1241)">
				<stop  offset="0" style="stop-color:#AA80F9"/>
				<stop  offset="0.9964" style="stop-color:#6165D7"/>
			</linearGradient>
			<path style="fill:url(#SVGID_00000181775827600316599670000002633805844453056436_);" d="M1067.253,2339.634
				c-9.35,170.237-17.04,343.641-22.867,520.118c-4.374,132.427-7.585,263.176-9.719,392.203
				c-15.604,1.927-31.209,3.854-46.814,5.78c-15.078-28.073-35.105-70.992-48.824-126.003
				c-16.663-66.812-12.804-106.488-20.112-175.733c-8.199-77.664-20.108-94.583-41.205-192.555
				c-42.819-198.83-64.229-298.247-16.464-360.088C876.752,2383.279,925.36,2332.917,1067.253,2339.634z"/>
			
				<linearGradient id="SVGID_00000015320977226430522790000010560583790096978607_" gradientUnits="userSpaceOnUse" x1="1147.3175" y1="1701.5065" x2="835.8345" y2="3194.9128">
				<stop  offset="0" style="stop-color:#FF9085"/>
				<stop  offset="1" style="stop-color:#FB6FBB"/>
			</linearGradient>
			<path style="fill:url(#SVGID_00000015320977226430522790000010560583790096978607_);" d="M839.83,1911.784
				c36.544-10.276,90.102-22.294,155.693-26.002c93.551-5.288,140.327-7.932,173.474,14.346
				c76.557,51.455,17.287,170.211,48.624,464.598c4.475,42.041,5.479,84.381,8.72,126.534c5.367,69.794,6.589,73.584,1.732,80.656
				c-30.453,44.35-144.072-22.545-310.602,3.898c-93.177,14.795-135.437,48.882-160.964,24.296
				c-29.77-28.671-4.234-105.787,17.748-172.173c25.232-76.201,40.819-77.181,55.142-134.57
				c14.97-59.983,5.915-90.867,3.584-185.456C831.865,2062.653,832.103,1995.297,839.83,1911.784z"/>
			<g style="opacity:0.3;">
				
					<linearGradient id="SVGID_00000022535159660535248610000001139920493543204543_" gradientUnits="userSpaceOnUse" x1="879.4443" y1="2978.7219" x2="997.6592" y2="2417.2034">
					<stop  offset="0" style="stop-color:#FF9085"/>
					<stop  offset="1" style="stop-color:#FB6FBB"/>
				</linearGradient>
				<path style="fill:url(#SVGID_00000022535159660535248610000001139920493543204543_);" d="M1066.286,2464.457
					c-43.526-3.406-71.762,21.201-109.334,2.025c-51.52-26.297-68.074-108.117-64.791-166.026
					c4.989-87.985,55.229-111.177,46.569-168.05c-4.683-30.757-26.642-71.591-105.484-113.31
					c-1.051,35.112-0.851,65.04-0.265,88.817c2.331,94.589,11.386,125.473-3.584,185.456
					c-14.322,57.388-29.909,58.369-55.142,134.57c-21.982,66.385-47.518,143.502-17.748,172.173
					c25.527,24.585,67.786-9.501,160.964-24.296c143.492-22.784,247.641,23.67,293.211,8.604
					C1155.617,2493.427,1105.673,2467.538,1066.286,2464.457z"/>
			</g>
			
				<linearGradient id="SVGID_00000150096861309194959680000004942906516827799736_" gradientUnits="userSpaceOnUse" x1="933.9397" y1="1657.0021" x2="622.4565" y2="3150.4094">
				<stop  offset="0" style="stop-color:#FF9085"/>
				<stop  offset="1" style="stop-color:#FB6FBB"/>
			</linearGradient>
			<path style="fill:url(#SVGID_00000150096861309194959680000004942906516827799736_);" d="M899.201,1917.824
				c-31.085-25.542-93.591,3.371-110.299,11.099c-93.176,43.099-176.834,159.24-156.106,281.977
				c3.108,18.408,17.524,104.506,90.429,146.224c65.783,37.642,154.609,27.961,225.779-25.353c9.725-8.631,19.453-17.26,29.18-25.89
				c9.568-10.343,19.139-20.686,28.707-31.029c-15.041-12.512-40.598-30.56-76.491-42.143c-47.322-15.27-81.774,12.13-103.73-8.701
				c-15.153-14.376-15.187-39.768-11.445-55.157c7.542-31.016,34.883-39.739,57.704-61.754
				C926.544,2055.375,936.421,1948.407,899.201,1917.824z"/>
			<g>
				
					<linearGradient id="SVGID_00000039822760162918839590000002952286752776898748_" gradientUnits="userSpaceOnUse" x1="1199.4951" y1="2490.7664" x2="1149.0914" y2="2347.9556">
					<stop  offset="0" style="stop-color:#311944"/>
					<stop  offset="1" style="stop-color:#893976"/>
				</linearGradient>
				<polygon style="fill:url(#SVGID_00000039822760162918839590000002952286752776898748_);" points="1345.933,2318.506 
					929.266,2312.286 1040.065,2365.759 1346.999,2345.67 				"/>
				
					<linearGradient id="SVGID_00000145060530959638663200000010532493615063132607_" gradientUnits="userSpaceOnUse" x1="979.3038" y1="2283.8555" x2="997.7852" y2="2411.5452">
					<stop  offset="0" style="stop-color:#311944"/>
					<stop  offset="1" style="stop-color:#893976"/>
				</linearGradient>
				<path style="fill:url(#SVGID_00000145060530959638663200000010532493615063132607_);" d="M914.562,2323.359
					c0,7.797,4.879,14.764,12.208,17.429l133.139,52.195l0.607-36.185l-131.248-44.511
					C921.901,2310.169,914.562,2315.697,914.562,2323.359z"/>
			</g>
			<path style="fill:#FFFFFF;" d="M978.721,2298.705c-2.557-0.571,12.458-30.489,24.246-27.037
				c11.785,3.453,69.437,36.865,74.677,50.622c5.241,13.757,5.241,13.757,5.241,13.757s-25.148,1.966-40.744-3.274
				C1026.544,2327.531,999.515,2303.341,978.721,2298.705z"/>
			<g>
				<g>
					
						<linearGradient id="SVGID_00000134956877700478401040000010574732308962673087_" gradientUnits="userSpaceOnUse" x1="1345.5035" y1="2295.0393" x2="1247.2345" y2="2155.4973">
						<stop  offset="0" style="stop-color:#444B8C"/>
						<stop  offset="0.9964" style="stop-color:#26264F"/>
					</linearGradient>
					<path style="fill:url(#SVGID_00000134956877700478401040000010574732308962673087_);" d="M1071.568,2102.906l-29.37,267.415
						c-1.013,9.227,11.904,22.974,21.177,22.535l430.855-26.45c7.08-0.337,12.975-5.547,14.174-12.532l54.078-258.276
						c1.613-9.399-15.282-19.106-24.815-18.84l-451.509,12.695C1078.617,2089.667,1072.39,2095.406,1071.568,2102.906z"/>
					
						<linearGradient id="SVGID_00000046321014864618362850000015597191410509801404_" gradientUnits="userSpaceOnUse" x1="1157.006" y1="2525.9788" x2="1372.063" y2="2089.1448">
						<stop  offset="0" style="stop-color:#311944"/>
						<stop  offset="1" style="stop-color:#893976"/>
					</linearGradient>
					<path style="fill:url(#SVGID_00000046321014864618362850000015597191410509801404_);" d="M1081.415,2110.702l-29.371,267.417
						c-1.013,9.227,6.457,17.176,15.729,16.739l436.305-20.655c7.078-0.335,12.974-5.547,14.173-12.531l44.575-259.458
						c1.614-9.401-5.778-17.927-15.312-17.658l-451.51,12.695C1088.466,2097.462,1082.236,2103.205,1081.415,2110.702z"/>
				</g>
				
					<linearGradient id="SVGID_00000117645435277435112520000015934686327949236919_" gradientUnits="userSpaceOnUse" x1="1051.9524" y1="2245.6042" x2="1524.4025" y2="2245.6042">
					<stop  offset="0" style="stop-color:#311944"/>
					<stop  offset="1" style="stop-color:#893976"/>
				</linearGradient>
				<path style="opacity:0.3;fill:url(#SVGID_00000117645435277435112520000015934686327949236919_);" d="M1337.613,2311.541
					c-38.097-16.146-24.65-46.938-69.637-85.306c-59.348-50.616-119.841-28.665-141.018-67.897
					c-6.594-12.22-9.745-31.232,1.743-62.005l-32.695,0.919c-7.539,0.21-13.768,5.954-14.59,13.45l-29.371,267.417
					c-1.012,9.226,6.459,17.176,15.729,16.739l436.305-20.655c7.078-0.335,12.974-5.546,14.173-12.531l6.151-35.803
					c-13.238-7.367-29.057-14.065-47.515-17.81C1412.878,2295.076,1381.473,2330.13,1337.613,2311.541z"/>
			</g>
			<path style="fill:#D8DEE8;" d="M1531.565,2336.8c0.709-2.154-0.794-4.374-3.06-4.489c-9.221-0.47-30.608-0.661-42.415,6.569
				c-15.337,9.395-35.169,26.538-18.468,35.188l15.595,8.079c0.716,0.371,1.496,0.486,2.282,0.314
				c5.541-1.219,28.864-6.393,31.415-7.677C1519.236,2373.615,1528.129,2347.226,1531.565,2336.8z"/>
			<g>
				<path style="fill:#FFFFFF;" d="M1002.509,1783.573c0.233,27.734-2.862,49.73-5.789,64.793
					c-3.353,17.259-5.769,21.717-8.853,25.335c-4.641,5.446-11.675,10.014-51.418,19.87c-21.627,5.361-24.409,5.215-24.887,7.362
					c-2.329,10.469,56.643,46.152,117.57,37.552c37.288-5.263,71.215-26.536,69.132-37.708c-2.096-11.242-39.343-5.21-50.444-25.549
					c-7.723-14.15,0.934-34.237,11.166-50.873C1049.076,1805.785,1012.419,1802.142,1002.509,1783.573z"/>
				<g>
					
						<linearGradient id="SVGID_00000096746265556487064900000013485004056938323901_" gradientUnits="userSpaceOnUse" x1="1077.5266" y1="1757.6521" x2="1006.9827" y2="1578.4835" gradientTransform="matrix(-1 0.0037 0.0037 1 2039.0248 162.9159)">
						<stop  offset="0" style="stop-color:#311944"/>
						<stop  offset="1" style="stop-color:#6B3976"/>
					</linearGradient>
					<path style="fill:url(#SVGID_00000096746265556487064900000013485004056938323901_);" d="M1071.717,1794.538
						c8.8-11.69,9.343-32.098-0.797-44.998c-8.726-11.101-22.458-12.683-30.678-13.634c-23.822-2.75-53.879,7.194-64.334,29.119
						c-6.195,12.993,7.206,39.99,9.304,44.844c2.377,5.488,6.684,7.37,10.67,11.52c5.523,5.754,14.171,14.905,28.285,30.208
						c1.096-4.515,2.765-10.106,5.413-16.165c1.02-2.333,5.115-11.441,11.313-18.994
						C1053.307,1801.297,1063.375,1805.616,1071.717,1794.538z"/>
					<path style="fill:#FFFFFF;" d="M1004.034,1838.727c0,0,15.66,25.692,46.841,23.664c27.917-1.818,32.006-64.422,14.175-77.707
						c-5.949-4.432-17.863-6.272-27.55-3.558c-5.721,1.604-7.66,3.981-17.059,6.418c-8.672,2.25-11.119,1.289-13.737,3.49
						c-3.273,2.756-5.672,9.51-0.205,27.812c-5.327-5.392-11.719-7.462-16.25-5.323c-0.721,0.343-2.639,1.646-3.718,3.622
						C982.627,1824.295,989.158,1833.428,1004.034,1838.727z"/>
					
						<linearGradient id="SVGID_00000082333409581708206830000012976370765647349437_" gradientUnits="userSpaceOnUse" x1="1055.9761" y1="1766.2313" x2="985.3607" y2="1586.8811" gradientTransform="matrix(-1 0.0037 0.0037 1 2039.0248 162.9159)">
						<stop  offset="0" style="stop-color:#311944"/>
						<stop  offset="1" style="stop-color:#6B3976"/>
					</linearGradient>
					<path style="fill:url(#SVGID_00000082333409581708206830000012976370765647349437_);" d="M1005.44,1787.29
						c1.346,1.004-2.77,6.027-3.076,13.136c-0.598,13.8,13.371,30.364,27.62,31.769c8.425,0.83,10.74-4.248,24.667-5.719
						c8.622-0.91,15.8,0.186,20.315,1.173c4.376,15.135,0.258,30.225-9.858,37.226c-10.891,7.538-24.804,2.965-30.62,1.053
						c-3.891-1.279-16.36-5.352-22.877-16.786c-6.79-11.916-0.126-19.098-7.916-27.157c-3.929-4.065-9.09-5.826-14.114-13.696
						c-1.364-2.139-2.275-4.03-2.832-5.302C993.953,1795.353,1003.49,1785.836,1005.44,1787.29z"/>
					<path style="fill:#FFFFFF;" d="M1064.833,1833.259c0,0-6.03,3.15-16.448,2.564c-0.506-0.03-1.066,0.12-1.13,0.382
						c-0.239,0.988,6.445,5.42,12.604,3.689c4.373-1.231,7.775-5.37,7.187-6.424
						C1066.795,1833.028,1065.806,1833.086,1064.833,1833.259z"/>
				</g>
			</g>
		</g>
	</g>
</g>
</svg>
